<svg id="wf-top" width="1440" height="2500" viewBox="0 0 1440 2500" xmlns="http://www.w3.org/2000/svg"
                role="img" aria-label="トップページ（左ナビ込み） ワイヤーフレーム（PC版）">
<style>
  text { font-family: "Noto Sans JP", "Inter", sans-serif; fill: #333333; letter-spacing: 0.01em; }
  .wf-sidenav-bg { fill: #ffffff; stroke: #e6e6e6; stroke-width: 2; }
  .wf-sidenav-text { font-size: 12px; fill: #333333; }
  .wf-logo-box { fill: #f0f0f0; stroke: #999999; stroke-width: 2; }
  .wf-logo-line { stroke: #999999; stroke-width: 2; }
  .wf-footer-bg { fill: #1f1f1f; }
  .wf-footer-text { font-size: 12px; fill: #eaeaea; }
  .wf-footer-text text { fill: #eaeaea; }
  .section { fill: #f7f7f7; stroke: #bbbbbb; stroke-width: 2; }
  .nav { fill: #ffffff; stroke: #bdbdbd; stroke-width: 2; }
  .panel { fill: #f7f7f7; stroke: #bbbbbb; stroke-width: 2; }
  .card { fill: #ffffff; stroke: #bbbbbb; stroke-width: 2; }
  .hero { fill: #e9e9e9; stroke: #a6a6a6; stroke-width: 2; }
  .banner { fill: #fff6d6; stroke: #b8a86b; stroke-width: 2; }
  .canvas { fill: #ececec; stroke: #888888; stroke-width: 2; }
  .cta { fill: #ffd966; stroke: #7f7f7f; stroke-width: 2; }
  .ghost { fill: #ffffff; stroke: #777777; stroke-width: 2; }
  .chip { fill: #f5f5f5; stroke: #bdbdbd; stroke-width: 2; }
  .text { font-size: 20px; font-weight: 700; fill: #333333; }
  .cap { font-size: 17px; font-weight: 700; fill: #333333; }
  .label { font-size: 13px; font-weight: 500; fill: #555555; }
  .sm { font-size: 12px; fill: #666666; }
  .small { font-size: 12px; fill: #666666; }
</style>

                <!-- Left Navigation (same for both) -->
                <g>
                  <rect x="0" y="0" width="200" height="2500" class="wf-sidenav-bg" />
                  <!-- Logo placeholder -->
                  <rect x="40" y="24" width="120" height="44" class="wf-logo-box" />
                  <line x1="40" y1="24" x2="160" y2="68" class="wf-logo-line" />
                  <line x1="160" y1="24" x2="40" y2="68" class="wf-logo-line" />

                  <g class="wf-sidenav-text">
                    <text x="24" y="110" font-weight="700">ブランド</text>
                    <text x="24" y="132">■■■■■■■■■■</text>
                    <text x="24" y="150">■■■■■■■■■■</text>
                    <text x="24" y="168">■■■■■■■■■■</text>

                    <text x="24" y="200" font-weight="700">アイテム</text>
                    <text x="24" y="222">■■■■■■■■■■</text>
                    <text x="24" y="240">■■■■■■■■■■</text>
                    <text x="24" y="258">DIY</text>
                    <text x="24" y="276">■■■■■■■■■■</text>
                    <text x="24" y="294">ギフトセット</text>

                    <text x="24" y="326" font-weight="700">香りから探す</text>
                    <text x="24" y="348">■■■■■■■■■■</text>

                    <text x="24" y="380" font-weight="700">香りと遊ぶ！香游</text>
                    <text x="24" y="402">■■■■■■■■■■</text>

                    <text x="24" y="434" font-weight="700">記事</text>
                    <text x="24" y="456">■■■■■■■■■■</text>
                    <text x="24" y="474">Sale</text>

                    <text x="24" y="506" font-weight="700">実店舗</text>
                    <text x="24" y="528">■■■■■■イベント</text>
                    <text x="24" y="546">■■■■■ ■■店</text>

                    <text x="24" y="578" font-weight="700">ショッピングガイド</text>
                    <text x="24" y="600">マイアカウント</text>
                    <text x="24" y="618">会員登録</text>
                    <text x="24" y="636">ログイン</text>
                  </g>
                </g>


                <g transform="translate(220,0) scale(0.85)">
                  <rect x="0" y="0" width="1440" height="44" class="section" />
                  <text x="40" y="28" class="sm">案内（配送・返品・支払など）</text>
                  <text x="1230" y="28" class="sm">ログイン</text>
                  <text x="1320" y="28" class="sm">カート</text>

                  <rect x="0" y="44" width="1440" height="88" class="nav" />
                  <text x="40" y="100" class="text">inim-dx top page</text>
                  <text x="1080" y="100" class="label">検索</text>
                  <text x="1160" y="100" class="label">マイアカウント</text>
                  <text x="1300" y="100" class="label">お問い合わせ</text>

                  <rect x="0" y="132" width="1440" height="56" class="nav" />
                  <text x="170" y="168" class="label">ブランド</text>
                  <text x="310" y="168" class="label">アイテム</text>
                  <text x="450" y="168" class="label">香りから探す</text>
                  <text x="650" y="168" class="label">香りと遊ぶ！香游</text>
                  <text x="860" y="168" class="label">記事</text>
                  <text x="950" y="168" class="label">Sale</text>
                  <text x="1040" y="168" class="label">実店舗</text>

                  <rect x="0" y="188" width="1440" height="56" class="section" />
                  <text x="40" y="222" class="label">お知らせ（最新）</text>

                  <rect x="60" y="274" width="1320" height="520" class="hero" rx="16" />
                  <text x="110" y="330" class="cap">Hero / Carousel</text>

                  <rect x="120" y="360" width="1200" height="240" class="banner" rx="16" />
                  <text x="720" y="430" text-anchor="middle" class="text">香りと遊ぶ！香游</text>
                  <text x="720" y="470" text-anchor="middle" class="label">色 × 粒子 × サウンドで香りを体験（スクロール＋ドラッグ）</text>
                  <text x="720" y="500" text-anchor="middle" class="label">SoundはトグルでON（余韻として付加）</text>
                  <rect x="620" y="530" width="200" height="52" class="cta" rx="12" />
                  <text x="720" y="563" text-anchor="middle" class="label">体験する</text>

                  <rect x="620" y="640" width="200" height="52" class="nav" rx="12" />
                  <text x="720" y="673" text-anchor="middle" class="label">体験の流れを見る</text>

                  <rect x="60" y="834" width="1320" height="200" class="section" rx="16" />
                  <text x="100" y="894" class="cap">体験の流れ</text>

                  <rect x="150" y="920" width="360" height="84" class="nav" rx="14" />
                  <text x="330" y="954" text-anchor="middle" class="sm">STEP1</text>
                  <text x="330" y="978" text-anchor="middle" class="sm">香りと遊ぶ！香游</text>

                  <rect x="540" y="920" width="360" height="84" class="nav" rx="14" />
                  <text x="720" y="954" text-anchor="middle" class="sm">STEP2</text>
                  <text x="720" y="978" text-anchor="middle" class="sm">実店舗体験</text>

                  <rect x="930" y="920" width="360" height="84" class="nav" rx="14" />
                  <text x="1110" y="954" text-anchor="middle" class="sm">STEP3</text>
                  <text x="1110" y="978" text-anchor="middle" class="sm">香り完成</text>

                  <rect x="60" y="1054" width="1320" height="520" class="section" rx="16" />
                  <text x="100" y="1114" class="cap">PICK UP</text>
                  <rect x="80" y="1150" width="305" height="360" class="nav" rx="14" />
                  <line x1="80" y1="1150" x2="385" y2="1510" stroke="#999" stroke-width="2" />
                  <line x1="385" y1="1150" x2="80" y2="1510" stroke="#999" stroke-width="2" />
                  <rect x="405" y="1150" width="305" height="360" class="nav" rx="14" />
                  <line x1="405" y1="1150" x2="710" y2="1510" stroke="#999" stroke-width="2" />
                  <line x1="710" y1="1150" x2="405" y2="1510" stroke="#999" stroke-width="2" />
                  <rect x="730" y="1150" width="305" height="360" class="nav" rx="14" />
                  <line x1="730" y1="1150" x2="1035" y2="1510" stroke="#999" stroke-width="2" />
                  <line x1="1035" y1="1150" x2="730" y2="1510" stroke="#999" stroke-width="2" />
                  <rect x="1055" y="1150" width="305" height="360" class="nav" rx="14" />
                  <line x1="1055" y1="1150" x2="1360" y2="1510" stroke="#999" stroke-width="2" />
                  <line x1="1360" y1="1150" x2="1055" y2="1510" stroke="#999" stroke-width="2" />

                  <rect x="60" y="1614" width="1320" height="220" class="banner" rx="16" />
                  <text x="720" y="1690" text-anchor="middle" class="text">香りと遊ぶ！香游</text>
                  <text x="720" y="1730" text-anchor="middle" class="label">あなたの香りを“見て・聴いて”立ち上げる（体験→実店舗体験へ）</text>
                  <rect x="620" y="1760" width="200" height="52" class="cta" rx="12" />
                  <text x="720" y="1793" text-anchor="middle" class="label">体験する</text>

                  <rect x="60" y="1874" width="1320" height="600" class="section" rx="16" />
                  <text x="100" y="1934" class="cap">新着商品</text>

                  <rect x="135" y="1980" width="340" height="200" class="nav" rx="14" />
                  <line x1="135" y1="1980" x2="475" y2="2180" stroke="#999" stroke-width="2" />
                  <line x1="475" y1="1980" x2="135" y2="2180" stroke="#999" stroke-width="2" />
                  <rect x="550" y="1980" width="340" height="200" class="nav" rx="14" />
                  <line x1="550" y1="1980" x2="890" y2="2180" stroke="#999" stroke-width="2" />
                  <line x1="890" y1="1980" x2="550" y2="2180" stroke="#999" stroke-width="2" />
                  <rect x="965" y="1980" width="340" height="200" class="nav" rx="14" />
                  <line x1="965" y1="1980" x2="1305" y2="2180" stroke="#999" stroke-width="2" />
                  <line x1="1305" y1="1980" x2="965" y2="2180" stroke="#999" stroke-width="2" />
                  <rect x="135" y="2240" width="340" height="200" class="nav" rx="14" />
                  <line x1="135" y1="2240" x2="475" y2="2440" stroke="#999" stroke-width="2" />
                  <line x1="475" y1="2240" x2="135" y2="2440" stroke="#999" stroke-width="2" />
                  <rect x="550" y="2240" width="340" height="200" class="nav" rx="14" />
                  <line x1="550" y1="2240" x2="890" y2="2440" stroke="#999" stroke-width="2" />
                  <line x1="890" y1="2240" x2="550" y2="2440" stroke="#999" stroke-width="2" />
                  <rect x="965" y="2240" width="340" height="200" class="nav" rx="14" />
                  <line x1="965" y1="2240" x2="1305" y2="2440" stroke="#999" stroke-width="2" />
                  <line x1="1305" y1="2240" x2="965" y2="2440" stroke="#999" stroke-width="2" />
                </g>

                <!-- Footer (wireframe) -->
                <g>
                  <rect x="200" y="2140" width="1240" height="260" class="wf-footer-bg" />
                  <g class="wf-footer-text">
                    <text x="240" y="2200">STOREINFO</text>
                    <text x="240" y="2222">■■■■■■■■■</text>

                    <text x="520" y="2200">TOP</text>
                    <text x="520" y="2222">配送・送料について</text>
                    <text x="520" y="2244">返品について</text>
                    <text x="520" y="2266">お支払い方法について</text>
                    <text x="520" y="2288">特定商取引法に基づく表記</text>
                    <text x="520" y="2310">プライバシーポリシー</text>

                    <text x="820" y="2200">メルマガ登録・解除</text>
                    <text x="820" y="2222">RSS / ATOM</text>

                    <text x="1080" y="2200">マイアカウント</text>
                    <text x="1080" y="2222">会員登録</text>
                    <text x="1080" y="2244">ログイン</text>
                    <text x="1080" y="2266">カートを見る</text>
                    <text x="1080" y="2288">お問い合わせ</text>

                    <text x="820" y="2380" text-anchor="middle" fill="#BBBBBB">inim-dx wireframe document</text>
                  </g>
                </g>

              </svg>