<svg id="wf-lower" width="1440" height="1450" viewBox="0 0 1440 1450" xmlns="http://www.w3.org/2000/svg"
                  role="img" aria-label="香りと遊ぶ！香游（左ナビ込み） ワイヤーフレーム（PC版）">
<style>
  text { font-family: "Noto Sans JP", "Inter", sans-serif; fill: #333333; letter-spacing: 0.01em; }
  .wf-sidenav-bg { fill: #ffffff; stroke: #e6e6e6; stroke-width: 2; }
  .wf-sidenav-text { font-size: 12px; fill: #333333; }
  .wf-logo-box { fill: #f0f0f0; stroke: #999999; stroke-width: 2; }
  .wf-logo-line { stroke: #999999; stroke-width: 2; }
  .wf-footer-bg { fill: #1f1f1f; }
  .wf-footer-text { font-size: 12px; fill: #eaeaea; }
  .wf-footer-text text { fill: #eaeaea; }
  .section { fill: #f7f7f7; stroke: #bbbbbb; stroke-width: 2; }
  .nav { fill: #ffffff; stroke: #bdbdbd; stroke-width: 2; }
  .panel { fill: #f7f7f7; stroke: #bbbbbb; stroke-width: 2; }
  .card { fill: #ffffff; stroke: #bbbbbb; stroke-width: 2; }
  .hero { fill: #e9e9e9; stroke: #a6a6a6; stroke-width: 2; }
  .banner { fill: #fff6d6; stroke: #b8a86b; stroke-width: 2; }
  .canvas { fill: #ececec; stroke: #888888; stroke-width: 2; }
  .cta { fill: #ffd966; stroke: #7f7f7f; stroke-width: 2; }
  .ghost { fill: #ffffff; stroke: #777777; stroke-width: 2; }
  .chip { fill: #f5f5f5; stroke: #bdbdbd; stroke-width: 2; }
  .text { font-size: 20px; font-weight: 700; fill: #333333; }
  .cap { font-size: 17px; font-weight: 700; fill: #333333; }
  .label { font-size: 13px; font-weight: 500; fill: #555555; }
  .sm { font-size: 12px; fill: #666666; }
  .small { font-size: 12px; fill: #666666; }
</style>

                  <!-- Left Navigation (same for both) -->
                  <g>
                    <rect x="0" y="0" width="200" height="1450" class="wf-sidenav-bg" />
                    <!-- Logo placeholder -->
                    <rect x="40" y="24" width="120" height="44" class="wf-logo-box" />
                    <line x1="40" y1="24" x2="160" y2="68" class="wf-logo-line" />
                    <line x1="160" y1="24" x2="40" y2="68" class="wf-logo-line" />

                    <g class="wf-sidenav-text">
                      <text x="24" y="110" font-weight="700">ブランド</text>
                      <text x="24" y="132">■■■■■■■■■■</text>
                      <text x="24" y="150">■■■■■■■■■■</text>
                      <text x="24" y="168">■■■■■■■■■■</text>

                      <text x="24" y="200" font-weight="700">アイテム</text>
                      <text x="24" y="222">■■■■■■■■■■</text>
                      <text x="24" y="240">■■■■■■■■■■</text>
                      <text x="24" y="258">DIY</text>
                      <text x="24" y="276">■■■■■■■■■■</text>
                      <text x="24" y="294">ギフトセット</text>

                      <text x="24" y="326" font-weight="700">香りから探す</text>
                      <text x="24" y="348">■■■■■■■■■■</text>

                      <text x="24" y="380" font-weight="700">香りと遊ぶ！香游</text>
                      <text x="24" y="402">■■■■■■■■■■</text>

                      <text x="24" y="434" font-weight="700">記事</text>
                      <text x="24" y="456">■■■■■■■■■■</text>
                      <text x="24" y="474">Sale</text>

                      <text x="24" y="506" font-weight="700">実店舗</text>
                      <text x="24" y="528">■■■■■■イベント</text>
                      <text x="24" y="546">■■■■■ ■■店</text>

                      <text x="24" y="578" font-weight="700">ショッピングガイド</text>
                      <text x="24" y="600">マイアカウント</text>
                      <text x="24" y="618">会員登録</text>
                      <text x="24" y="636">ログイン</text>
                    </g>
                  </g>

                  <g transform="translate(220,0) scale(0.85)">
                    <rect x="0" y="0" width="1440" height="44" class="section" />
                    <text x="40" y="28" class="sm">案内（配送・返品・支払など）</text>
                    <text x="1230" y="28" class="sm">ログイン</text>
                    <text x="1320" y="28" class="sm">カート</text>

                    <rect x="0" y="44" width="1440" height="88" class="nav" />
                    <text x="40" y="100" class="text">香りと遊ぶ！香游 - デジタル調香ページ</text>
                    <text x="1080" y="100" class="label">検索</text>
                    <text x="1160" y="100" class="label">マイアカウント</text>
                    <text x="1300" y="100" class="label">お問い合わせ</text>

                    <rect x="0" y="132" width="1440" height="56" class="nav" />
                    <text x="170" y="168" class="label">ブランド</text>
                    <text x="310" y="168" class="label">アイテム</text>
                    <text x="450" y="168" class="label">香りから探す</text>
                    <text x="650" y="168" class="label">香りと遊ぶ！香游</text>
                    <text x="860" y="168" class="label">記事</text>
                    <text x="950" y="168" class="label">Sale</text>
                    <text x="1040" y="168" class="label">実店舗</text>

                    <rect x="0" y="188" width="1440" height="80" class="panel" />
                    <text x="40" y="236" class="text">香りと遊ぶ！香游</text>
                    <rect x="1110" y="210" width="140" height="36" class="ghost" rx="18" />
                    <text x="1180" y="234" text-anchor="middle" class="small">Sound OFF/ON</text>
                    <rect x="1270" y="210" width="120" height="36" class="ghost" rx="18" />
                    <text x="1330" y="234" text-anchor="middle" class="small">Exit</text>

                    <rect x="120" y="284" width="1200" height="86" class="card" rx="10" />
                    <text x="160" y="318" class="cap">はじめ方（初回のみ表示）</text>
                    <text x="160" y="344" class="small">スクロール：Top / Middle / Base
                      のレイヤーを切替　｜　ドラッグ：粒子の広がりを調整　｜　色：ノートの方向性</text>

                    <rect x="120" y="388" width="1200" height="560" class="canvas" rx="16" />
                    <text x="720" y="658" text-anchor="middle" class="text">Color + Particle Canvas</text>
                    <text x="720" y="693" text-anchor="middle" class="small">Scroll / Drag Interaction</text>

                    <rect x="160" y="428" width="180" height="36" class="panel" rx="18" />
                    <text x="250" y="452" text-anchor="middle" class="small">Layer: Top</text>
                    <rect x="350" y="428" width="180" height="36" class="panel" rx="18" />
                    <text x="440" y="452" text-anchor="middle" class="small">Middle</text>
                    <rect x="540" y="428" width="180" height="36" class="panel" rx="18" />
                    <text x="630" y="452" text-anchor="middle" class="small">Base</text>

                    <rect x="120" y="968" width="1200" height="180" class="panel" rx="16" />
                    <text x="160" y="1016" class="cap">Controls</text>

                    <text x="160" y="1050" class="small">Mood（視覚）</text>
                    <rect x="160" y="1066" width="140" height="56" class="card" rx="10" />
                    <rect x="310" y="1066" width="140" height="56" class="card" rx="10" />
                    <rect x="460" y="1066" width="140" height="56" class="card" rx="10" />
                    <rect x="610" y="1066" width="140" height="56" class="card" rx="10" />
                    <text x="230" y="1100" text-anchor="middle" class="small">Mood A</text>
                    <text x="380" y="1100" text-anchor="middle" class="small">Mood B</text>
                    <text x="530" y="1100" text-anchor="middle" class="small">Mood C</text>
                    <text x="680" y="1100" text-anchor="middle" class="small">Mood D</text>

                    <text x="800" y="1050" class="small">Color（ノート）</text>
                    <rect x="800" y="1066" width="170" height="56" class="card" rx="10" />
                    <text x="885" y="1100" text-anchor="middle" class="small">Color Wheel</text>

                    <text x="1060" y="1050" class="small">Speed（広がり）</text>
                    <rect x="1060" y="1058" width="220" height="12" class="card" rx="6" />
                    <rect x="1156" y="1052" width="28" height="24" class="panel" rx="6" />

                    <rect x="1095" y="1086" width="195" height="52" class="cta" rx="12" />
                    <text x="1193" y="1118" text-anchor="middle" class="small">この香りを見る</text>

                    <rect x="120" y="1168" width="1200" height="100" class="card" rx="16" />
                    <text x="160" y="1206" class="cap">あなたの香り（結果）</text>
                    <text x="160" y="1234" class="small">色 × 粒子 × サウンド（任意）で表現 / 香り名（編集可）</text>

                    <rect x="940" y="1190" width="140" height="52" class="ghost" rx="12" />
                    <text x="1010" y="1222" text-anchor="middle" class="small">保存（任意）</text>

                    <rect x="1095" y="1190" width="195" height="52" class="cta" rx="12" />
                    <text x="1193" y="1222" text-anchor="middle" class="small">実店舗体験へ</text>
                  </g>

                  <!-- Footer (wireframe) -->
                  <g>
                    <rect x="200" y="1180" width="1240" height="260" class="wf-footer-bg" />
                    <g class="wf-footer-text">
                      <text x="240" y="1238">STOREINFO</text>
                      <text x="240" y="1260">■■■■■■■■■</text>

                      <text x="520" y="1238">TOP</text>
                      <text x="520" y="1260">配送・送料について</text>
                      <text x="520" y="1282">返品について</text>
                      <text x="520" y="1304">お支払い方法について</text>
                      <text x="520" y="1326">特定商取引法に基づく表記</text>
                      <text x="520" y="1348">プライバシーポリシー</text>

                      <text x="820" y="1238">メルマガ登録・解除</text>
                      <text x="820" y="1260">RSS / ATOM</text>

                      <text x="1080" y="1238">マイアカウント</text>
                      <text x="1080" y="1260">会員登録</text>
                      <text x="1080" y="1282">ログイン</text>
                      <text x="1080" y="1304">カートを見る</text>
                      <text x="1080" y="1326">お問い合わせ</text>

                      <text x="820" y="1410" text-anchor="middle" fill="#BBBBBB">inim-dx wireframe document</text>
                    </g>
                  </g>
                </svg>