<svg id="wf-webapp" width="1440" height="1500" viewBox="0 0 1440 1500" xmlns="http://www.w3.org/2000/svg"
                role="img" aria-label="Spring Boot管理画面のワイヤーフレーム（ログイン・一覧・登録・詳細・編集）">
<style>
  text { font-family: "Noto Sans JP", "Inter", sans-serif; fill: #333333; letter-spacing: 0.01em; }
  .wf-sidenav-bg { fill: #ffffff; stroke: #e6e6e6; stroke-width: 2; }
  .wf-sidenav-text { font-size: 12px; fill: #333333; }
  .wf-logo-box { fill: #f0f0f0; stroke: #999999; stroke-width: 2; }
  .wf-logo-line { stroke: #999999; stroke-width: 2; }
  .wf-footer-bg { fill: #1f1f1f; }
  .wf-footer-text { font-size: 12px; fill: #eaeaea; }
  .wf-footer-text text { fill: #eaeaea; }
  .section { fill: #f7f7f7; stroke: #bbbbbb; stroke-width: 2; }
  .nav { fill: #ffffff; stroke: #bdbdbd; stroke-width: 2; }
  .panel { fill: #f7f7f7; stroke: #bbbbbb; stroke-width: 2; }
  .card { fill: #ffffff; stroke: #bbbbbb; stroke-width: 2; }
  .hero { fill: #e9e9e9; stroke: #a6a6a6; stroke-width: 2; }
  .banner { fill: #fff6d6; stroke: #b8a86b; stroke-width: 2; }
  .canvas { fill: #ececec; stroke: #888888; stroke-width: 2; }
  .cta { fill: #ffd966; stroke: #7f7f7f; stroke-width: 2; }
  .ghost { fill: #ffffff; stroke: #777777; stroke-width: 2; }
  .chip { fill: #f5f5f5; stroke: #bdbdbd; stroke-width: 2; }
  .text { font-size: 20px; font-weight: 700; fill: #333333; }
  .cap { font-size: 17px; font-weight: 700; fill: #333333; }
  .label { font-size: 13px; font-weight: 500; fill: #555555; }
  .sm { font-size: 12px; fill: #666666; }
  .small { font-size: 12px; fill: #666666; }
</style>

                <!-- Left Navigation -->
                <g>
                  <rect x="0" y="0" width="200" height="1500" class="wf-sidenav-bg" />
                  <rect x="40" y="24" width="120" height="44" class="wf-logo-box" />
                  <line x1="40" y1="24" x2="160" y2="68" class="wf-logo-line" />
                  <line x1="160" y1="24" x2="40" y2="68" class="wf-logo-line" />
                  <g class="wf-sidenav-text">
                    <text x="24" y="110" font-weight="700">ブランド</text>
                    <text x="24" y="132">■■■■■■■■■■</text>
                    <text x="24" y="150">■■■■■■■■■■</text>
                    <text x="24" y="168">■■■■■■■■■■</text>

                    <text x="24" y="200" font-weight="700">アイテム</text>
                    <text x="24" y="222">■■■■■■■■■■</text>
                    <text x="24" y="240">■■■■■■■■■■</text>
                    <text x="24" y="258">DIY</text>
                    <text x="24" y="276">■■■■■■■■■■</text>
                    <text x="24" y="294">ギフトセット</text>

                    <text x="24" y="326" font-weight="700">香りから探す</text>
                    <text x="24" y="348">■■■■■■■■■■</text>

                    <text x="24" y="380" font-weight="700">香りと遊ぶ！香游</text>
                    <text x="24" y="402">■■■■■■■■■■</text>

                    <text x="24" y="434" font-weight="700">記事</text>
                    <text x="24" y="456">■■■■■■■■■■</text>
                    <text x="24" y="474">Sale</text>

                    <text x="24" y="506" font-weight="700">実店舗</text>
                    <text x="24" y="528">■■■■■■イベント</text>
                    <text x="24" y="546">■■■■■ ■■店</text>

                    <text x="24" y="578" font-weight="700">ショッピングガイド</text>
                    <text x="24" y="600">マイアカウント</text>
                    <text x="24" y="618">会員登録</text>
                    <text x="24" y="636">ログイン</text>
                  </g>
                </g>

                <!-- Header -->
                <rect x="200" y="0" width="1240" height="44" class="section" />
                <text x="240" y="28" class="sm">管理者向け案内 / 稼働状況 / サポート</text>
                <text x="1330" y="28" text-anchor="end" class="sm">ログアウト</text>

                <rect x="200" y="44" width="1240" height="88" class="nav" />
                <text x="240" y="100" class="text">Spring Boot 管理画面</text>
                <text x="1320" y="100" text-anchor="end" class="label">管理者 / 通知 / ヘルプ</text>

                <rect x="200" y="132" width="1240" height="56" class="nav" />
                <text x="240" y="168" class="label">一覧</text>
                <text x="320" y="168" class="label">新規登録</text>
                <text x="430" y="168" class="label">詳細</text>
                <text x="510" y="168" class="label">編集</text>

                <!-- Main content frame -->
                <rect x="230" y="220" width="1170" height="940" rx="16" fill="#fcfcfc" stroke="#d6d6d6"
                  stroke-width="2" />

                <g transform="translate(240,230) scale(0.78)">
                  <rect x="20" y="20" width="1360" height="1160" rx="18" fill="#fcfcfc" stroke="#d6d6d6"
                    stroke-width="2" />
                  <text x="46" y="62" font-family="Arial,sans-serif" font-size="22" font-weight="700"
                    fill="#2e2e2e">Spring Boot 管理画面 Wireframe</text>

                  <g transform="translate(44,92)">
                    <rect x="0" y="0" width="418" height="500" rx="14" fill="#f7f7f7" stroke="#bbbbbb"
                      stroke-width="2" />
                    <text x="22" y="36" font-family="Arial,sans-serif" font-size="18" font-weight="700"
                      fill="#333">ログイン画面</text>
                    <rect x="32" y="74" width="354" height="56" rx="8" fill="#fff" stroke="#bdbdbd" stroke-width="2" />
                    <text x="48" y="108" font-family="Arial,sans-serif" font-size="14" fill="#666">メールアドレス</text>
                    <rect x="32" y="146" width="354" height="56" rx="8" fill="#fff" stroke="#bdbdbd" stroke-width="2" />
                    <text x="48" y="180" font-family="Arial,sans-serif" font-size="14" fill="#666">パスワード</text>
                    <rect x="32" y="220" width="170" height="40" rx="8" fill="#fff" stroke="#bdbdbd" stroke-width="2" />
                    <text x="48" y="246" font-family="Arial,sans-serif" font-size="13" fill="#666">ログイン状態を保持</text>
                    <rect x="32" y="280" width="354" height="52" rx="10" fill="#ffd966" stroke="#7f7f7f"
                      stroke-width="2" />
                    <text x="209" y="313" text-anchor="middle" font-family="Arial,sans-serif" font-size="15"
                      font-weight="700" fill="#333">ログイン</text>
                    <text x="32" y="365" font-family="Arial,sans-serif" font-size="12" fill="#777">パスワード再設定 /
                      エラー表示領域</text>
                  </g>

                  <g transform="translate(492,92)">
                    <rect x="0" y="0" width="418" height="500" rx="14" fill="#f7f7f7" stroke="#bbbbbb"
                      stroke-width="2" />
                    <text x="22" y="36" font-family="Arial,sans-serif" font-size="18" font-weight="700"
                      fill="#333">一覧画面</text>
                    <rect x="22" y="58" width="374" height="66" rx="10" fill="#ffffff" stroke="#bdbdbd"
                      stroke-width="2" />
                    <rect x="34" y="74" width="180" height="34" rx="6" fill="#fff" stroke="#bdbdbd" stroke-width="2" />
                    <rect x="224" y="74" width="84" height="34" rx="6" fill="#fff" stroke="#bdbdbd" stroke-width="2" />
                    <rect x="314" y="74" width="70" height="34" rx="6" fill="#ffd966" stroke="#7f7f7f"
                      stroke-width="2" />
                    <text x="44" y="96" font-family="Arial,sans-serif" font-size="12" fill="#666">検索キーワード</text>
                    <text x="266" y="96" text-anchor="middle" font-family="Arial,sans-serif" font-size="12"
                      fill="#666">ソート</text>
                    <text x="349" y="96" text-anchor="middle" font-family="Arial,sans-serif" font-size="12"
                      fill="#555">検索</text>
                    <rect x="22" y="138" width="374" height="282" rx="8" fill="#fff" stroke="#bdbdbd"
                      stroke-width="2" />
                    <line x1="22" y1="172" x2="396" y2="172" stroke="#c8c8c8" stroke-width="2" />
                    <line x1="22" y1="216" x2="396" y2="216" stroke="#dfdfdf" stroke-width="1.5" />
                    <line x1="22" y1="258" x2="396" y2="258" stroke="#dfdfdf" stroke-width="1.5" />
                    <line x1="22" y1="300" x2="396" y2="300" stroke="#dfdfdf" stroke-width="1.5" />
                    <line x1="22" y1="342" x2="396" y2="342" stroke="#dfdfdf" stroke-width="1.5" />
                    <line x1="22" y1="384" x2="396" y2="384" stroke="#dfdfdf" stroke-width="1.5" />
                    <text x="34" y="162" font-family="Arial,sans-serif" font-size="12" fill="#666">ID / 名称 / ステータス / 更新日
                      / 操作</text>
                    <rect x="22" y="438" width="374" height="40" rx="8" fill="#ffffff" stroke="#bdbdbd"
                      stroke-width="2" />
                    <text x="209" y="463" text-anchor="middle" font-family="Arial,sans-serif" font-size="12"
                      fill="#666">1 2 3 ... 次へ（ページネーション）</text>
                  </g>

                  <g transform="translate(940,92)">
                    <rect x="0" y="0" width="418" height="500" rx="14" fill="#f7f7f7" stroke="#bbbbbb"
                      stroke-width="2" />
                    <text x="22" y="36" font-family="Arial,sans-serif" font-size="18" font-weight="700"
                      fill="#333">新規登録画面</text>
                    <rect x="22" y="62" width="374" height="398" rx="10" fill="#fff" stroke="#bdbdbd"
                      stroke-width="2" />
                    <text x="36" y="100" font-family="Arial,sans-serif" font-size="13" fill="#555">名称 *</text>
                    <rect x="36" y="112" width="346" height="42" rx="6" fill="#fff" stroke="#c3c3c3" stroke-width="2" />
                    <text x="36" y="184" font-family="Arial,sans-serif" font-size="13" fill="#555">カテゴリ *</text>
                    <rect x="36" y="196" width="346" height="42" rx="6" fill="#fff" stroke="#c3c3c3" stroke-width="2" />
                    <text x="36" y="268" font-family="Arial,sans-serif" font-size="13" fill="#555">説明</text>
                    <rect x="36" y="280" width="346" height="92" rx="6" fill="#fff" stroke="#c3c3c3" stroke-width="2" />
                    <rect x="36" y="396" width="110" height="42" rx="8" fill="#fff" stroke="#8a8a8a" stroke-width="2" />
                    <rect x="156" y="396" width="110" height="42" rx="8" fill="#ffd966" stroke="#7f7f7f"
                      stroke-width="2" />
                    <text x="91" y="422" text-anchor="middle" font-family="Arial,sans-serif" font-size="12"
                      fill="#666">キャンセル</text>
                    <text x="211" y="422" text-anchor="middle" font-family="Arial,sans-serif" font-size="12"
                      fill="#444">登録</text>
                  </g>

                  <g transform="translate(44,622)">
                    <rect x="0" y="0" width="656" height="526" rx="14" fill="#f7f7f7" stroke="#bbbbbb"
                      stroke-width="2" />
                    <text x="22" y="36" font-family="Arial,sans-serif" font-size="18" font-weight="700"
                      fill="#333">詳細画面</text>
                    <rect x="22" y="62" width="612" height="80" rx="10" fill="#fff" stroke="#bdbdbd" stroke-width="2" />
                    <text x="36" y="96" font-family="Arial,sans-serif" font-size="14" fill="#555">レコード名 / ステータス / 作成日 /
                      更新日</text>
                    <rect x="22" y="156" width="612" height="260" rx="10" fill="#fff" stroke="#bdbdbd"
                      stroke-width="2" />
                    <text x="36" y="192" font-family="Arial,sans-serif" font-size="13" fill="#555">基本情報（項目ラベル +
                      値）</text>
                    <line x1="36" y1="212" x2="620" y2="212" stroke="#e0e0e0" stroke-width="1.5" />
                    <line x1="36" y1="248" x2="620" y2="248" stroke="#e0e0e0" stroke-width="1.5" />
                    <line x1="36" y1="284" x2="620" y2="284" stroke="#e0e0e0" stroke-width="1.5" />
                    <line x1="36" y1="320" x2="620" y2="320" stroke="#e0e0e0" stroke-width="1.5" />
                    <line x1="36" y1="356" x2="620" y2="356" stroke="#e0e0e0" stroke-width="1.5" />
                    <rect x="22" y="434" width="120" height="46" rx="9" fill="#fff" stroke="#8a8a8a" stroke-width="2" />
                    <rect x="152" y="434" width="120" height="46" rx="9" fill="#ffd966" stroke="#7f7f7f"
                      stroke-width="2" />
                    <rect x="282" y="434" width="120" height="46" rx="9" fill="#fff" stroke="#8a8a8a"
                      stroke-width="2" />
                    <text x="82" y="463" text-anchor="middle" font-family="Arial,sans-serif" font-size="12"
                      fill="#666">一覧へ戻る</text>
                    <text x="212" y="463" text-anchor="middle" font-family="Arial,sans-serif" font-size="12"
                      fill="#444">編集</text>
                    <text x="342" y="463" text-anchor="middle" font-family="Arial,sans-serif" font-size="12"
                      fill="#666">削除</text>
                  </g>

                  <g transform="translate(724,622)">
                    <rect x="0" y="0" width="634" height="526" rx="14" fill="#f7f7f7" stroke="#bbbbbb"
                      stroke-width="2" />
                    <text x="22" y="36" font-family="Arial,sans-serif" font-size="18" font-weight="700"
                      fill="#333">編集画面</text>
                    <rect x="22" y="62" width="590" height="392" rx="10" fill="#fff" stroke="#bdbdbd"
                      stroke-width="2" />
                    <text x="38" y="98" font-family="Arial,sans-serif" font-size="13" fill="#555">名称 *</text>
                    <rect x="38" y="110" width="558" height="40" rx="6" fill="#fff" stroke="#c3c3c3" stroke-width="2" />
                    <text x="38" y="180" font-family="Arial,sans-serif" font-size="13" fill="#555">カテゴリ *</text>
                    <rect x="38" y="192" width="558" height="40" rx="6" fill="#fff" stroke="#c3c3c3" stroke-width="2" />
                    <text x="38" y="262" font-family="Arial,sans-serif" font-size="13" fill="#555">説明</text>
                    <rect x="38" y="274" width="558" height="110" rx="6" fill="#fff" stroke="#c3c3c3"
                      stroke-width="2" />
                    <text x="38" y="416" font-family="Arial,sans-serif" font-size="12" fill="#777">バリデーションエラー表示 /
                      更新履歴</text>
                    <rect x="22" y="468" width="130" height="44" rx="9" fill="#fff" stroke="#8a8a8a" stroke-width="2" />
                    <rect x="162" y="468" width="130" height="44" rx="9" fill="#ffd966" stroke="#7f7f7f"
                      stroke-width="2" />
                    <text x="87" y="496" text-anchor="middle" font-family="Arial,sans-serif" font-size="12"
                      fill="#666">キャンセル</text>
                    <text x="227" y="496" text-anchor="middle" font-family="Arial,sans-serif" font-size="12"
                      fill="#444">更新</text>
                  </g>
                </g>

                <!-- Footer -->
                <g>
                  <rect x="200" y="1220" width="1240" height="260" class="wf-footer-bg" />
                  <g class="wf-footer-text">
                    <text x="240" y="1280">STOREINFO</text>
                    <text x="240" y="1302">■■■■■■■■■</text>
                    <text x="520" y="1280">TOP</text>
                    <text x="520" y="1302">配送・送料について</text>
                    <text x="520" y="1324">返品について</text>
                    <text x="520" y="1346">お支払い方法について</text>
                    <text x="520" y="1368">特定商取引法に基づく表記</text>
                    <text x="520" y="1390">プライバシーポリシー</text>
                    <text x="820" y="1280">メルマガ登録・解除</text>
                    <text x="820" y="1302">RSS / ATOM</text>
                    <text x="1080" y="1280">マイアカウント</text>
                    <text x="1080" y="1302">会員登録</text>
                    <text x="1080" y="1324">ログイン</text>
                    <text x="1080" y="1346">カートを見る</text>
                    <text x="1080" y="1368">お問い合わせ</text>
                    <text x="820" y="1460" text-anchor="middle" fill="#BBBBBB">inim-dx wireframe document</text>
                  </g>
                </g>
              </svg>
