<svg id="wf-mobile" width="1200" height="920" viewBox="0 0 1200 920" xmlns="http://www.w3.org/2000/svg"
                role="img" aria-label="スマートフォン版ワイヤーフレーム（TOPページとデジタル調香ページ）">

<style>
  .wf-footer-bg { fill: #1f1f1f; }
  .wf-footer-text { font-family: Arial, sans-serif; font-size: 10px; fill: #eaeaea; }
  .wf-footer-text text { fill: #eaeaea; }
</style>

                <!-- Left smartphone: TOP page -->
                <g transform="translate(70,40)">
                  <rect x="0" y="0" width="460" height="840" rx="42" fill="#f2f2f2" stroke="#9d9d9d" stroke-width="4" />
                  <rect x="20" y="20" width="420" height="800" rx="32" fill="#ffffff" stroke="#d0d0d0"
                    stroke-width="2" />
                  <rect x="175" y="10" width="110" height="12" rx="6" fill="#b6b6b6" />

                  <text x="38" y="58" font-family="Arial,sans-serif" font-size="15" font-weight="700"
                    fill="#303030">TOPページ</text>
                  <rect x="28" y="70" width="404" height="58" rx="10" fill="#f7f7f7" stroke="#bdbdbd"
                    stroke-width="2" />
                  <text x="44" y="106" font-family="Arial,sans-serif" font-size="13" fill="#636363">ロゴ / 検索 / カート</text>

                  <rect x="28" y="142" width="404" height="172" rx="12" fill="#e9e9e9" stroke="#a6a6a6"
                    stroke-width="2" />
                  <text x="230" y="234" text-anchor="middle" font-family="Arial,sans-serif" font-size="14"
                    fill="#555">Hero</text>

                  <rect x="28" y="328" width="404" height="128" rx="12" fill="#ffd966" stroke="#8b8b8b"
                    stroke-width="2" />
                  <text x="230" y="375" text-anchor="middle" font-family="Arial,sans-serif" font-size="15"
                    font-weight="700" fill="#333">香りと遊ぶ！香游</text>
                  <rect x="142" y="393" width="176" height="40" rx="10" fill="#ffe9a6" stroke="#777" stroke-width="2" />
                  <text x="230" y="418" text-anchor="middle" font-family="Arial,sans-serif" font-size="13"
                    fill="#555">体験する</text>

                  <rect x="28" y="470" width="404" height="92" rx="12" fill="#f5f5f5" stroke="#bdbdbd"
                    stroke-width="2" />
                  <text x="44" y="505" font-family="Arial,sans-serif" font-size="13" font-weight="700"
                    fill="#464646">体験の流れ</text>
                  <text x="44" y="532" font-family="Arial,sans-serif" font-size="12" fill="#666">STEP1 → STEP2 →
                    STEP3</text>

                  <rect x="28" y="576" width="194" height="134" rx="10" fill="#fafafa" stroke="#bfbfbf"
                    stroke-width="2" />
                  <rect x="238" y="576" width="194" height="134" rx="10" fill="#fafafa" stroke="#bfbfbf"
                    stroke-width="2" />
                  <text x="125" y="650" text-anchor="middle" font-family="Arial,sans-serif" font-size="12"
                    fill="#666">PICK UP</text>
                  <text x="335" y="650" text-anchor="middle" font-family="Arial,sans-serif" font-size="12"
                    fill="#666">新着商品</text>

                  <rect x="28" y="724" width="404" height="88" rx="10" class="wf-footer-bg" />
                  <g class="wf-footer-text">
                    <text x="42" y="752" font-size="10">STOREINFO</text>
                    <text x="152" y="752" font-size="10">TOP</text>
                    <text x="232" y="752" font-size="10">マイアカウント</text>
                    <text x="42" y="772" font-size="10">配送・送料 / 返品 / お支払い / お問い合わせ</text>
                    <text x="230" y="800" text-anchor="middle" font-size="9">inim-dx wireframe document</text>
                  </g>
                </g>

                <!-- Divider -->
                <g aria-hidden="true">
                  <rect x="586" y="70" width="28" height="780" rx="14" fill="#8f8f8f" />
                  <rect x="590" y="74" width="20" height="772" rx="10" fill="#bdbdbd" />
                  <line x1="592" y1="84" x2="592" y2="836" stroke="#ededed" stroke-width="2" opacity="0.85" />
                  <line x1="607" y1="84" x2="607" y2="836" stroke="#6d6d6d" stroke-width="2" opacity="0.7" />
                </g>

                <!-- Right smartphone: Digital perfumery page -->
                <g transform="translate(670,40)">
                  <rect x="0" y="0" width="460" height="840" rx="42" fill="#f2f2f2" stroke="#9d9d9d" stroke-width="4" />
                  <rect x="20" y="20" width="420" height="800" rx="32" fill="#ffffff" stroke="#d0d0d0"
                    stroke-width="2" />
                  <rect x="175" y="10" width="110" height="12" rx="6" fill="#b6b6b6" />

                  <text x="38" y="58" font-family="Arial,sans-serif" font-size="15" font-weight="700"
                    fill="#303030">デジタル調香ページ</text>
                  <rect x="28" y="70" width="404" height="54" rx="10" fill="#f8f8f8" stroke="#bdbdbd"
                    stroke-width="2" />
                  <text x="44" y="103" font-family="Arial,sans-serif" font-size="13" fill="#636363">香りと遊ぶ！香游 / Sound /
                    Exit</text>

                  <rect x="28" y="136" width="404" height="64" rx="10" fill="#ffffff" stroke="#bdbdbd"
                    stroke-width="2" />
                  <text x="44" y="174" font-family="Arial,sans-serif" font-size="12" fill="#666">操作説明（スクロール・ドラッグ）</text>

                  <rect x="28" y="214" width="404" height="236" rx="14" fill="#e9e9e9" stroke="#9f9f9f"
                    stroke-width="2" />
                  <text x="230" y="334" text-anchor="middle" font-family="Arial,sans-serif" font-size="14"
                    fill="#555">Color + Particle Canvas</text>

                  <rect x="28" y="464" width="404" height="204" rx="12" fill="#f7f7f7" stroke="#b5b5b5"
                    stroke-width="2" />
                  <text x="44" y="498" font-family="Arial,sans-serif" font-size="13" font-weight="700"
                    fill="#4a4a4a">Controls</text>
                  <text x="44" y="526" font-family="Arial,sans-serif" font-size="11" fill="#666">Mood（視覚）</text>
                  <text x="332" y="526" font-family="Arial,sans-serif" font-size="11" fill="#666">Color（ノート）</text>
                  <rect x="44" y="510" width="88" height="36" rx="8" fill="#fff" stroke="#bbb" stroke-width="2" />
                  <rect x="140" y="510" width="88" height="36" rx="8" fill="#fff" stroke="#bbb" stroke-width="2" />
                  <rect x="236" y="510" width="88" height="36" rx="8" fill="#fff" stroke="#bbb" stroke-width="2" />
                  <rect x="332" y="510" width="96" height="36" rx="8" fill="#fff" stroke="#bbb" stroke-width="2" />
                  <text x="88" y="533" text-anchor="middle" font-family="Arial,sans-serif" font-size="11"
                    fill="#666">Mood A</text>
                  <text x="184" y="533" text-anchor="middle" font-family="Arial,sans-serif" font-size="11"
                    fill="#666">Mood B</text>
                  <text x="280" y="533" text-anchor="middle" font-family="Arial,sans-serif" font-size="11"
                    fill="#666">Mood C</text>
                  <text x="380" y="533" text-anchor="middle" font-family="Arial,sans-serif" font-size="11"
                    fill="#666">Color Wheel</text>
                  <text x="44" y="574" font-family="Arial,sans-serif" font-size="11" fill="#666">Speed（広がり）</text>
                  <rect x="44" y="580" width="172" height="10" rx="5" fill="#fff" stroke="#bbb" stroke-width="2" />
                  <rect x="120" y="574" width="24" height="22" rx="5" fill="#ececec" stroke="#aaa" stroke-width="2" />
                  <rect x="242" y="578" width="174" height="44" rx="10" fill="#ffd966" stroke="#777" stroke-width="2" />
                  <text x="329" y="606" text-anchor="middle" font-family="Arial,sans-serif" font-size="12"
                    fill="#555">この香りを見る</text>

                  <rect x="28" y="682" width="404" height="130" rx="12" fill="#ffffff" stroke="#bdbdbd"
                    stroke-width="2" />
                  <text x="44" y="718" font-family="Arial,sans-serif" font-size="13" font-weight="700"
                    fill="#4a4a4a">あなたの香り（結果）</text>
                  <rect x="242" y="748" width="80" height="40" rx="10" fill="#fff" stroke="#777" stroke-width="2" />
                  <text x="282" y="773" text-anchor="middle" font-family="Arial,sans-serif" font-size="12"
                    fill="#666">保存</text>
                  <rect x="332" y="748" width="84" height="40" rx="10" fill="#ffd966" stroke="#777" stroke-width="2" />
                  <text x="374" y="773" text-anchor="middle" font-family="Arial,sans-serif" font-size="12"
                    fill="#555">実店舗体験へ</text>
                </g>
              </svg>
